<?xml version="1.0" encoding="utf-8"?>
<!-- Generator: Adobe Illustrator 21.0.1, SVG Export Plug-In . SVG Version: 6.00 Build 0)  -->
<svg version="1.1" id="Layer_1" xmlns="http://www.w3.org/2000/svg" xmlns:xlink="http://www.w3.org/1999/xlink" x="0px" y="0px"
	 viewBox="0 0 134 134" style="enable-background:new 0 0 134 134;" xml:space="preserve">
<style type="text/css">
	.st0{fill:#880201;}
	.st1{fill:#242E47;}
	.st2{fill:#45352E;}
	.st3{fill:#7A8694;}
	.st4{fill:#FCF9F7;}
</style>
<g>
	<path class="st1" d="M106.2,134H27.8C12.5,134,0,121.5,0,106.2V27.8C0,12.5,12.5,0,27.8,0h78.5C121.5,0,134,12.5,134,27.8v78.5
		C134,121.5,121.5,134,106.2,134z"/>
	<path class="st4" d="M122,70.1c-0.8-1.7-2-3.1-3.4-4.3c-1.5-1.2-3.3-2.2-5.4-3c-2.1-0.8-4.5-1.6-7.1-2.3c-2-0.5-3.8-1-5.3-1.4
		c-1.5-0.5-2.8-1-3.8-1.5c-1-0.6-1.8-1.2-2.3-1.9c-0.5-0.7-0.8-1.6-0.8-2.8c0-1.9,0.7-3.4,2.1-4.5c1.4-1.1,3.5-1.6,6.4-1.6
		c1.6,0,3.2,0.2,4.8,0.6c1.6,0.4,3,0.9,4.3,1.5c1.3,0.6,2.5,1.2,3.4,1.8c0.9,0.6,1.6,1.1,1.9,1.4l4.6-8.5c-2.4-1.6-5.1-3-8.3-4.2
		c-3.2-1.2-6.6-1.8-10.4-1.8c-2.7,0-5.3,0.4-7.6,1.1c-2.4,0.7-4.4,1.8-6.2,3.2c-0.4,0.3-0.8,0.6-1.1,1c-2.1-1.3-4.6-2.5-7.3-3.5
		c-3.2-1.2-6.6-1.8-10.4-1.8c-2.7,0-5.3,0.4-7.6,1.1c-2.4,0.7-4.4,1.8-6.2,3.2c-0.8,0.6-1.5,1.3-2.1,2.1c-1.2-1.1-2.5-2.2-4-3.1
		c-3.6-2.2-7.9-3.2-12.8-3.2c-4.2,0-7.9,0.8-11.2,2.3c-3.3,1.6-6,3.6-8.3,6.1c-2.3,2.5-4,5.4-5.2,8.6c-1.2,3.2-1.8,6.4-1.8,9.7
		c0,3.4,0.6,6.8,1.9,10.1c1.3,3.3,3.1,6.2,5.4,8.8c2.3,2.6,5,4.7,8.2,6.3c3.2,1.6,6.7,2.4,10.5,2.4c2.2,0,4.4-0.3,6.6-0.8
		c2.3-0.6,4.4-1.4,6.4-2.4c0.7-0.4,1.5-0.8,2.2-1.3c2.2,1.2,4.5,2.1,6.9,2.9c3.9,1.2,7.9,1.8,11.9,1.8c2.6,0,5.1-0.3,7.5-0.9
		c2.4-0.6,4.5-1.5,6.3-2.8c0.3-0.2,0.6-0.4,0.8-0.6c1.9,1,3.9,1.8,6.1,2.4c3.9,1.2,7.9,1.8,11.9,1.8c2.6,0,5.1-0.3,7.5-0.9
		c2.4-0.6,4.5-1.5,6.3-2.8c1.8-1.3,3.3-2.9,4.4-4.9c1.1-2,1.6-4.5,1.6-7.4C123.2,73.9,122.8,71.8,122,70.1z M70.8,82.9
		c-2.1,0-4.1-0.3-6-0.8c-2-0.5-3.7-1.1-5.4-1.8c-0.3-0.1-0.6-0.3-0.9-0.4c0-0.1-3.7-6.4-5.7-8.7s-5.1-3.1-5.1-3.1
		c5.9,4.8,1,9.3,0,10.4c-1,1-2.1,1.9-3.3,2.5c-1.2,0.7-2.4,1.1-3.7,1.4c-1.3,0.3-2.6,0.5-3.8,0.5c-2.3,0-4.4-0.5-6.4-1.5
		c-1.9-1-3.6-2.3-5-4c-1.4-1.7-2.5-3.6-3.2-5.8c-0.8-2.2-1.1-4.5-1.1-6.8c0-2.1,0.3-4.2,1-6.4c0.7-2.1,1.6-4.1,2.9-5.7
		c1.3-1.7,2.9-3.1,4.8-4.1c1.9-1.1,4.2-1.6,6.8-1.6c1.2,0,2.4,0.1,3.7,0.4c1.3,0.3,2.5,0.7,3.6,1.3c1.2,0.6,2.2,1.4,3.2,2.5
		c1,1,1.9,2.3,2.6,3.8l0.5-0.3c0,2,0.3,3.7,0.9,5.2c0.6,1.5,1.6,2.8,2.8,3.9c1.3,1.1,2.8,2.1,4.7,2.9c1.9,0.8,4.1,1.6,6.7,2.3
		c2.1,0.6,4,1.2,5.7,1.7c1.7,0.5,3.2,1.1,4.4,1.7c1.2,0.6,2.1,1.3,2.8,2.1c0.7,0.8,1,1.8,1,2.9C79.4,81.1,76.5,82.9,70.8,82.9z
		 M103.5,82.9c-2.1,0-4.1-0.3-6-0.8c-2-0.5-3.7-1.1-5.4-1.8c-0.6-0.3-1.2-0.6-1.8-0.9c0.2-1,0.2-2,0.2-3.1c0-2.5-0.4-4.5-1.2-6.2
		c-0.8-1.7-2-3.1-3.4-4.3c-1.5-1.2-3.3-2.2-5.4-3c-2.1-0.8-4.5-1.6-7.1-2.3c-2-0.5-3.8-1-5.3-1.4c-1.5-0.5-2.8-1-3.8-1.5
		c-1-0.6-1.8-1.2-2.3-1.9c-0.5-0.7-0.8-1.6-0.8-2.8c0-1.9,0.7-3.4,2.1-4.5c1.4-1.1,3.5-1.6,6.4-1.6c1.6,0,3.2,0.2,4.8,0.6
		c1.6,0.4,3,0.9,4.3,1.5c1.3,0.6,2.5,1.2,3.4,1.8c0.5,0.3,0.9,0.6,1.2,0.8c-0.2,1-0.2,2-0.2,3c0,2.1,0.3,3.8,0.9,5.3
		c0.6,1.5,1.6,2.8,2.8,3.9c1.3,1.1,2.8,2.1,4.7,2.9c1.9,0.8,4.1,1.6,6.7,2.3c2.1,0.6,4,1.2,5.7,1.7c1.7,0.5,3.2,1.1,4.4,1.7
		c1.2,0.6,2.1,1.3,2.8,2.1c0.7,0.8,1,1.8,1,2.9C112.1,81.1,109.2,82.9,103.5,82.9z"/>
</g>
</svg>
