<?xml version="1.0" encoding="utf-8"?>
<!-- Generator: Adobe Illustrator 21.0.1, SVG Export Plug-In . SVG Version: 6.00 Build 0)  -->
<svg version="1.1" id="Layer_1" xmlns="http://www.w3.org/2000/svg" xmlns:xlink="http://www.w3.org/1999/xlink" x="0px" y="0px"
	 viewBox="0 0 200 200" style="enable-background:new 0 0 200 200;" xml:space="preserve">
<style type="text/css">
	.st0{fill:#880201;}
	.st1{fill:#242E47;}
	.st2{fill:#45352E;}
	.st3{fill:#7A8694;}
	.st4{fill:#FCF9F7;}
</style>
<g>
	<path class="st3" d="M155.9,200H44.1C19.8,200,0,180.2,0,155.9V44.1C0,19.8,19.8,0,44.1,0h111.8C180.2,0,200,19.8,200,44.1v111.8
		C200,180.2,180.2,200,155.9,200z"/>
	<path class="st4" d="M182,104.7c-1.2-2.5-2.9-4.7-5.1-6.5c-2.2-1.8-4.9-3.3-8.1-4.5c-3.2-1.2-6.7-2.3-10.6-3.4
		c-3-0.8-5.7-1.5-7.9-2.1c-2.3-0.7-4.2-1.4-5.7-2.3c-1.5-0.8-2.6-1.8-3.4-2.9c-0.8-1.1-1.2-2.5-1.2-4.1c0-2.9,1.1-5.1,3.2-6.6
		c2.1-1.6,5.3-2.4,9.6-2.4c2.4,0,4.8,0.3,7.1,0.9c2.3,0.6,4.5,1.3,6.5,2.2c2,0.9,3.7,1.7,5.1,2.6c1.4,0.9,2.3,1.6,2.9,2.1l6.9-12.6
		c-3.5-2.4-7.7-4.5-12.4-6.3c-4.7-1.8-9.9-2.6-15.5-2.6c-4.1,0-7.8,0.5-11.4,1.6c-3.5,1.1-6.6,2.7-9.3,4.8c-0.6,0.5-1.2,1-1.7,1.5
		c-3.2-2-6.8-3.7-10.9-5.3c-4.7-1.8-9.9-2.6-15.5-2.6c-4.1,0-7.8,0.5-11.4,1.6c-3.5,1.1-6.6,2.7-9.3,4.8c-1.2,0.9-2.2,2-3.2,3.1
		c-1.8-1.7-3.8-3.2-6-4.6C69,58,62.7,56.4,55.3,56.4c-6.2,0-11.8,1.2-16.7,3.5c-4.9,2.3-9,5.4-12.4,9.1c-3.4,3.8-6,8-7.7,12.8
		c-1.8,4.8-2.6,9.6-2.6,14.5c0,5.1,1,10.1,2.9,15c1.9,4.9,4.6,9.3,8,13.2c3.4,3.9,7.5,7,12.2,9.4c4.7,2.4,10,3.6,15.7,3.6
		c3.2,0,6.5-0.4,9.9-1.2c3.4-0.8,6.6-2,9.5-3.6c1.1-0.6,2.2-1.2,3.2-1.9c3.2,1.7,6.7,3.2,10.4,4.3c5.9,1.8,11.8,2.7,17.8,2.7
		c3.9,0,7.6-0.4,11.2-1.3c3.6-0.9,6.7-2.2,9.5-4.1c0.4-0.3,0.8-0.6,1.2-0.9c2.8,1.4,5.9,2.7,9.1,3.6c5.9,1.8,11.8,2.7,17.8,2.7
		c3.9,0,7.6-0.4,11.2-1.3c3.6-0.9,6.7-2.2,9.5-4.1c2.7-1.9,4.9-4.3,6.5-7.4c1.6-3,2.4-6.7,2.4-11C183.8,110.3,183.2,107.2,182,104.7
		z M105.7,123.8c-3.1,0-6.1-0.4-9-1.1c-2.9-0.8-5.6-1.7-8-2.8c-0.4-0.2-0.9-0.4-1.3-0.6c0.1-0.1-5.4-9.6-8.5-13
		c-3-3.4-7.6-4.6-7.6-4.6c8.8,7.2,1.4,14-0.1,15.5c-1.5,1.5-3.1,2.8-4.9,3.8c-1.8,1-3.6,1.7-5.6,2.1c-2,0.5-3.8,0.7-5.6,0.7
		c-3.5,0-6.6-0.7-9.5-2.3c-2.9-1.5-5.4-3.5-7.4-6c-2.1-2.5-3.7-5.4-4.8-8.6c-1.1-3.3-1.7-6.7-1.7-10.2c0-3.2,0.5-6.3,1.5-9.5
		c1-3.2,2.4-6,4.3-8.6c1.9-2.5,4.3-4.6,7.2-6.1c2.9-1.6,6.3-2.4,10.2-2.4c1.8,0,3.6,0.2,5.5,0.6c1.9,0.4,3.7,1.1,5.4,2
		c1.7,0.9,3.3,2.1,4.8,3.7c1.5,1.5,2.8,3.4,3.8,5.7l0.7-0.5c0,3,0.5,5.6,1.4,7.7c0.9,2.2,2.3,4.2,4.2,5.9c1.9,1.7,4.2,3.2,7,4.4
		c2.8,1.2,6.1,2.4,10,3.4c3.2,0.9,6,1.7,8.6,2.5c2.6,0.8,4.7,1.6,6.5,2.5c1.8,0.9,3.2,2,4.2,3.2c1,1.2,1.5,2.7,1.5,4.4
		C118.5,121.1,114.2,123.8,105.7,123.8z M154.4,123.8c-3.1,0-6.1-0.4-9-1.1c-2.9-0.8-5.6-1.7-8-2.8c-1-0.4-1.9-0.9-2.7-1.3
		c0.2-1.4,0.4-3,0.4-4.6c0-3.7-0.6-6.8-1.8-9.3c-1.2-2.5-2.9-4.7-5.1-6.5c-2.2-1.8-4.9-3.3-8.1-4.5c-3.2-1.2-6.7-2.3-10.6-3.4
		c-3-0.8-5.7-1.5-7.9-2.1c-2.3-0.7-4.2-1.4-5.7-2.3c-1.5-0.8-2.6-1.8-3.4-2.9c-0.8-1.1-1.2-2.5-1.2-4.1c0-2.9,1.1-5.1,3.2-6.6
		c2.1-1.6,5.3-2.4,9.6-2.4c2.4,0,4.8,0.3,7.1,0.9c2.3,0.6,4.5,1.3,6.5,2.2c2,0.9,3.7,1.7,5.1,2.6c0.7,0.4,1.3,0.9,1.8,1.2
		c-0.2,1.4-0.3,3-0.3,4.5c0,3.1,0.5,5.7,1.4,7.9c0.9,2.2,2.3,4.2,4.2,5.9c1.9,1.7,4.2,3.2,7,4.4c2.8,1.2,6.1,2.4,10,3.4
		c3.2,0.9,6,1.7,8.6,2.5c2.6,0.8,4.7,1.6,6.5,2.5c1.8,0.9,3.2,2,4.2,3.2c1,1.2,1.5,2.7,1.5,4.4C167.3,121.1,163,123.8,154.4,123.8z"
		/>
</g>
</svg>
