<?xml version="1.0" encoding="utf-8"?>
<!-- Generator: Adobe Illustrator 21.0.1, SVG Export Plug-In . SVG Version: 6.00 Build 0)  -->
<svg version="1.1" id="Layer_1" xmlns="http://www.w3.org/2000/svg" xmlns:xlink="http://www.w3.org/1999/xlink" x="0px" y="0px"
	 viewBox="0 0 525 525" style="enable-background:new 0 0 525 525;" xml:space="preserve">
<style type="text/css">
	.st0{fill:#880201;}
	.st1{fill:#242E47;}
	.st2{fill:#45352E;}
	.st3{fill:#7A8694;}
	.st4{fill:#FCF9F7;}
</style>
<g>
	<path class="st3" d="M480.9,525H44.1C19.8,525,0,505.2,0,480.9V44.1C0,19.8,19.8,0,44.1,0h436.8C505.2,0,525,19.8,525,44.1v436.8
		C525,505.2,505.2,525,480.9,525z"/>
	<path class="st4" d="M477.9,274.8c-3.2-6.6-7.6-12.3-13.5-17c-5.8-4.7-12.9-8.7-21.3-11.8c-8.4-3.2-17.7-6.1-27.9-8.9
		c-7.9-2-14.8-3.8-20.9-5.6c-6-1.8-11-3.7-14.9-5.9c-3.9-2.2-7-4.7-9-7.5c-2.1-2.9-3.1-6.5-3.1-10.8c0-7.5,2.8-13.3,8.3-17.4
		c5.5-4.1,13.9-6.2,25.1-6.2c6.3,0,12.5,0.8,18.6,2.4c6.1,1.6,11.8,3.5,17,5.8c5.2,2.3,9.7,4.6,13.3,7c3.6,2.4,6.2,4.2,7.5,5.6
		l18-33.1c-9.3-6.3-20.1-11.8-32.5-16.4c-12.4-4.6-26-7-40.8-7c-10.6,0-20.6,1.4-29.9,4.3c-9.3,2.9-17.4,7.1-24.4,12.6
		c-1.6,1.2-3,2.5-4.4,3.9c-8.3-5.2-17.9-9.8-28.5-13.8c-12.4-4.6-26-7-40.8-7c-10.6,0-20.6,1.4-29.9,4.3
		c-9.3,2.9-17.4,7.1-24.4,12.6c-3.1,2.5-5.9,5.2-8.4,8.2c-4.6-4.5-9.9-8.5-15.8-12c-14.1-8.5-30.8-12.7-50.1-12.7
		c-16.4,0-31,3.1-43.8,9.2c-12.8,6.1-23.7,14.1-32.5,24c-8.9,9.9-15.6,21-20.3,33.6c-4.6,12.5-7,25.2-7,38c0,13.4,2.5,26.6,7.5,39.5
		c5,12.9,12,24.5,21,34.6c9,10.2,19.7,18.4,32.1,24.7c12.4,6.3,26.1,9.5,41.1,9.5c8.5,0,17.2-1.1,26-3.3c8.9-2.2,17.2-5.3,25-9.5
		c2.9-1.6,5.9-3.5,8.6-5.3c8.4,4.5,17.3,8.6,27,11.5c15.4,4.7,31,7.1,46.7,7.1c10.2,0,20.1-1.1,29.4-3.4c9.4-2.3,17.6-5.9,24.8-10.8
		c1.1-0.8,2.2-1.6,3.3-2.4c7.5,3.8,15.4,7,23.8,9.5c15.4,4.7,31,7.1,46.7,7.1c10.2,0,20.1-1.1,29.4-3.4c9.4-2.3,17.6-5.9,24.8-10.8
		c7.2-4.9,12.9-11.4,17.2-19.4c4.2-8,6.4-17.6,6.4-28.8C482.6,289.6,481,281.4,477.9,274.8z M277.3,325c-8.1,0-16-1-23.7-3
		c-7.7-2-14.7-4.4-21-7.2c-1.2-0.5-2.3-1-3.4-1.6c0.1-0.3-14.3-25.2-22.3-34.2s-20-12-20-12c23,19,3.8,36.6-0.2,40.7
		c-3.9,4-8.2,7.3-12.9,9.9c-4.6,2.6-9.5,4.4-14.6,5.6c-5.1,1.2-10.1,1.8-14.8,1.8c-9.1,0-17.4-2-25-5.9c-7.6-3.9-14.1-9.2-19.5-15.7
		c-5.4-6.5-9.6-14-12.6-22.6c-3-8.6-4.4-17.5-4.4-26.8c0-8.3,1.3-16.6,3.8-25c2.6-8.4,6.4-15.9,11.4-22.5c5-6.6,11.3-12,18.9-16.1
		c7.6-4.1,16.5-6.2,26.8-6.2c4.7,0,9.6,0.5,14.5,1.6c4.9,1.1,9.7,2.8,14.2,5.2c4.5,2.4,8.8,5.6,12.7,9.6c3.9,4,7.3,9,10.1,14.9
		l1.8-1.2c0.1,7.9,1.3,14.6,3.7,20.3c2.5,5.8,6.2,10.9,11.1,15.4c4.9,4.4,11.1,8.3,18.5,11.5c7.4,3.3,16.1,6.3,26.2,9
		c8.3,2.4,15.8,4.5,22.5,6.5c6.7,2,12.4,4.1,17.2,6.5c4.7,2.4,8.4,5.1,10.9,8.3c2.6,3.2,3.8,7,3.8,11.5
		C311.1,317.8,299.8,325,277.3,325z M405.4,325c-8.1,0-16-1-23.7-3c-7.7-2-14.7-4.4-21-7.2c-2.5-1.1-4.9-2.3-7.1-3.4
		c0.6-3.8,0.9-7.8,0.9-12.1c0-9.7-1.6-17.8-4.7-24.4c-3.2-6.6-7.6-12.3-13.5-17c-5.8-4.7-12.9-8.7-21.3-11.8
		c-8.4-3.2-17.7-6.1-27.9-8.9c-7.9-2-14.8-3.8-20.9-5.6c-6-1.8-11-3.7-14.9-5.9c-3.9-2.2-7-4.7-9-7.5c-2.1-2.9-3.1-6.5-3.1-10.8
		c0-7.5,2.8-13.3,8.3-17.4c5.5-4.1,13.9-6.2,25.1-6.2c6.3,0,12.5,0.8,18.6,2.4c6.1,1.6,11.8,3.5,17,5.8c5.2,2.3,9.7,4.6,13.3,7
		c1.8,1.2,3.3,2.2,4.6,3.2c-0.6,3.8-0.9,7.8-0.9,11.9c0,8.1,1.2,15,3.7,20.9c2.5,5.8,6.2,10.9,11.1,15.4c4.9,4.4,11.1,8.3,18.5,11.5
		c7.4,3.3,16.1,6.3,26.2,9c8.3,2.4,15.8,4.5,22.5,6.5c6.7,2,12.4,4.1,17.2,6.5c4.7,2.4,8.4,5.1,10.9,8.3c2.6,3.2,3.8,7,3.8,11.5
		C439.1,317.8,427.9,325,405.4,325z"/>
</g>
</svg>
