<?xml version="1.0" encoding="utf-8"?>
<!-- Generator: Adobe Illustrator 21.0.1, SVG Export Plug-In . SVG Version: 6.00 Build 0)  -->
<svg version="1.1" id="Layer_1" xmlns="http://www.w3.org/2000/svg" xmlns:xlink="http://www.w3.org/1999/xlink" x="0px" y="0px"
	 viewBox="0 0 80 80" style="enable-background:new 0 0 80 80;" xml:space="preserve">
<style type="text/css">
	.st0{fill:#880201;}
	.st1{fill:#242E47;}
	.st2{fill:#45352E;}
	.st3{fill:#7A8694;}
	.st4{fill:#FCF9F7;}
</style>
<g>
	<path class="st1" d="M60.7,80H19.3C8.7,80,0,71.3,0,60.7l0-41.5C0,8.7,8.7,0,19.3,0l41.5,0C71.3,0,80,8.7,80,19.3v41.5
		C80,71.3,71.3,80,60.7,80z"/>
	<path class="st4" d="M72.8,41.9c-0.5-1-1.2-1.9-2.1-2.6c-0.9-0.7-2-1.3-3.2-1.8c-1.3-0.5-2.7-0.9-4.3-1.4c-1.2-0.3-2.3-0.6-3.2-0.9
		c-0.9-0.3-1.7-0.6-2.3-0.9c-0.6-0.3-1.1-0.7-1.4-1.1c-0.3-0.4-0.5-1-0.5-1.6c0-1.1,0.4-2,1.3-2.7c0.8-0.6,2.1-0.9,3.8-0.9
		c1,0,1.9,0.1,2.8,0.4c0.9,0.2,1.8,0.5,2.6,0.9c0.8,0.3,1.5,0.7,2,1.1c0.6,0.4,0.9,0.6,1.1,0.9l2.7-5c-1.4-1-3.1-1.8-5-2.5
		c-1.9-0.7-4-1.1-6.2-1.1c-1.6,0-3.1,0.2-4.6,0.7c-1.4,0.4-2.7,1.1-3.7,1.9c-0.2,0.2-0.5,0.4-0.7,0.6c-1.3-0.8-2.7-1.5-4.3-2.1
		c-1.9-0.7-4-1.1-6.2-1.1c-1.6,0-3.1,0.2-4.6,0.7c-1.4,0.4-2.7,1.1-3.7,1.9c-0.5,0.4-0.9,0.8-1.3,1.2c-0.7-0.7-1.5-1.3-2.4-1.8
		c-2.1-1.3-4.7-1.9-7.6-1.9c-2.5,0-4.7,0.5-6.7,1.4c-2,0.9-3.6,2.1-5,3.7c-1.4,1.5-2.4,3.2-3.1,5.1c-0.7,1.9-1.1,3.8-1.1,5.8
		c0,2,0.4,4,1.1,6c0.8,2,1.8,3.7,3.2,5.3c1.4,1.5,3,2.8,4.9,3.8c1.9,1,4,1.4,6.3,1.4c1.3,0,2.6-0.2,4-0.5c1.4-0.3,2.6-0.8,3.8-1.4
		c0.4-0.2,0.9-0.5,1.3-0.8c1.3,0.7,2.7,1.3,4.1,1.7c2.3,0.7,4.7,1.1,7.1,1.1c1.6,0,3.1-0.2,4.5-0.5c1.4-0.3,2.7-0.9,3.8-1.6
		c0.2-0.1,0.3-0.2,0.5-0.4c1.1,0.6,2.3,1.1,3.6,1.5c2.3,0.7,4.7,1.1,7.1,1.1c1.6,0,3.1-0.2,4.5-0.5c1.4-0.3,2.7-0.9,3.8-1.6
		c1.1-0.8,2-1.7,2.6-3c0.6-1.2,1-2.7,1-4.4C73.5,44.1,73.3,42.9,72.8,41.9z M42.3,49.5c-1.2,0-2.4-0.1-3.6-0.5
		c-1.2-0.3-2.2-0.7-3.2-1.1c-0.2-0.1-0.3-0.2-0.5-0.2c0,0-2.2-3.8-3.4-5.2c-1.2-1.4-3-1.8-3-1.8c3.5,2.9,0.6,5.6,0,6.2
		c-0.6,0.6-1.3,1.1-2,1.5c-0.7,0.4-1.4,0.7-2.2,0.9c-0.8,0.2-1.5,0.3-2.3,0.3c-1.4,0-2.7-0.3-3.8-0.9c-1.2-0.6-2.1-1.4-3-2.4
		c-0.8-1-1.5-2.1-1.9-3.4c-0.5-1.3-0.7-2.7-0.7-4.1c0-1.3,0.2-2.5,0.6-3.8c0.4-1.3,1-2.4,1.7-3.4c0.8-1,1.7-1.8,2.9-2.5
		c1.2-0.6,2.5-0.9,4.1-0.9c0.7,0,1.5,0.1,2.2,0.2c0.8,0.2,1.5,0.4,2.2,0.8c0.7,0.4,1.3,0.8,1.9,1.5c0.6,0.6,1.1,1.4,1.5,2.3l0.3-0.2
		c0,1.2,0.2,2.2,0.6,3.1c0.4,0.9,0.9,1.7,1.7,2.3c0.8,0.7,1.7,1.3,2.8,1.8c1.1,0.5,2.5,1,4,1.4c1.3,0.4,2.4,0.7,3.4,1
		c1,0.3,1.9,0.6,2.6,1c0.7,0.4,1.3,0.8,1.7,1.3c0.4,0.5,0.6,1.1,0.6,1.8C47.4,48.4,45.7,49.5,42.3,49.5z M61.8,49.5
		c-1.2,0-2.4-0.1-3.6-0.5C57,48.8,55.9,48.4,55,48c-0.4-0.2-0.7-0.3-1.1-0.5c0.1-0.6,0.1-1.2,0.1-1.8c0-1.5-0.2-2.7-0.7-3.7
		c-0.5-1-1.2-1.9-2.1-2.6c-0.9-0.7-2-1.3-3.2-1.8c-1.3-0.5-2.7-0.9-4.3-1.4c-1.2-0.3-2.3-0.6-3.2-0.9c-0.9-0.3-1.7-0.6-2.3-0.9
		c-0.6-0.3-1.1-0.7-1.4-1.1c-0.3-0.4-0.5-1-0.5-1.6c0-1.1,0.4-2,1.3-2.7c0.8-0.6,2.1-0.9,3.8-0.9c1,0,1.9,0.1,2.8,0.4
		c0.9,0.2,1.8,0.5,2.6,0.9c0.8,0.3,1.5,0.7,2,1.1c0.3,0.2,0.5,0.3,0.7,0.5c-0.1,0.6-0.1,1.2-0.1,1.8c0,1.2,0.2,2.3,0.6,3.2
		c0.4,0.9,0.9,1.7,1.7,2.3c0.8,0.7,1.7,1.3,2.8,1.8c1.1,0.5,2.5,1,4,1.4c1.3,0.4,2.4,0.7,3.4,1c1,0.3,1.9,0.6,2.6,1
		c0.7,0.4,1.3,0.8,1.7,1.3c0.4,0.5,0.6,1.1,0.6,1.8C66.9,48.4,65.2,49.5,61.8,49.5z"/>
</g>
</svg>
